<mxfile host="app.diagrams.net" modified="2021-07-11T19:35:04.185Z" agent="5.0 (Windows NT 10.0; Win64; x64) AppleWebKit/537.36 (KHTML, like Gecko) Chrome/91.0.4472.124 Safari/537.36" etag="-E2kkOMEC1A3x8RzPNh7" version="14.8.4" type="github">
  <diagram id="5Is-DQp5s_zuICFfsUVI" name="Page-1">
    <mxGraphModel dx="813" dy="435" grid="1" gridSize="10" guides="1" tooltips="1" connect="1" arrows="1" fold="1" page="1" pageScale="1" pageWidth="850" pageHeight="1100" math="0" shadow="0">
      <root>
        <mxCell id="0" />
        <mxCell id="1" parent="0" />
        <mxCell id="N_KGEwdVsxF9C0kxCByH-1" value="user" style="swimlane;fontStyle=0;childLayout=stackLayout;horizontal=1;startSize=26;horizontalStack=0;resizeParent=1;resizeParentMax=0;resizeLast=0;collapsible=1;marginBottom=0;align=center;fontSize=14;" vertex="1" parent="1">
          <mxGeometry x="10" y="20" width="88.97" height="146" as="geometry" />
        </mxCell>
        <mxCell id="N_KGEwdVsxF9C0kxCByH-2" value="id" style="text;strokeColor=none;fillColor=none;spacingLeft=4;spacingRight=4;overflow=hidden;rotatable=0;points=[[0,0.5],[1,0.5]];portConstraint=eastwest;fontSize=12;" vertex="1" parent="N_KGEwdVsxF9C0kxCByH-1">
          <mxGeometry y="26" width="88.97" height="30" as="geometry" />
        </mxCell>
        <mxCell id="N_KGEwdVsxF9C0kxCByH-3" value="email" style="text;strokeColor=none;fillColor=none;spacingLeft=4;spacingRight=4;overflow=hidden;rotatable=0;points=[[0,0.5],[1,0.5]];portConstraint=eastwest;fontSize=12;" vertex="1" parent="N_KGEwdVsxF9C0kxCByH-1">
          <mxGeometry y="56" width="88.97" height="30" as="geometry" />
        </mxCell>
        <mxCell id="N_KGEwdVsxF9C0kxCByH-4" value="password" style="text;strokeColor=none;fillColor=none;spacingLeft=4;spacingRight=4;overflow=hidden;rotatable=0;points=[[0,0.5],[1,0.5]];portConstraint=eastwest;fontSize=12;" vertex="1" parent="N_KGEwdVsxF9C0kxCByH-1">
          <mxGeometry y="86" width="88.97" height="30" as="geometry" />
        </mxCell>
        <mxCell id="N_KGEwdVsxF9C0kxCByH-5" value="role STRING" style="text;strokeColor=none;fillColor=none;spacingLeft=4;spacingRight=4;overflow=hidden;rotatable=0;points=[[0,0.5],[1,0.5]];portConstraint=eastwest;fontSize=12;" vertex="1" parent="N_KGEwdVsxF9C0kxCByH-1">
          <mxGeometry y="116" width="88.97" height="30" as="geometry" />
        </mxCell>
        <mxCell id="N_KGEwdVsxF9C0kxCByH-6" value="basket" style="swimlane;fontStyle=0;childLayout=stackLayout;horizontal=1;startSize=26;horizontalStack=0;resizeParent=1;resizeParentMax=0;resizeLast=0;collapsible=1;marginBottom=0;align=center;fontSize=14;" vertex="1" parent="1">
          <mxGeometry x="160" y="40" width="50" height="86" as="geometry" />
        </mxCell>
        <mxCell id="N_KGEwdVsxF9C0kxCByH-7" value="id" style="text;strokeColor=none;fillColor=none;spacingLeft=4;spacingRight=4;overflow=hidden;rotatable=0;points=[[0,0.5],[1,0.5]];portConstraint=eastwest;fontSize=12;" vertex="1" parent="N_KGEwdVsxF9C0kxCByH-6">
          <mxGeometry y="26" width="50" height="30" as="geometry" />
        </mxCell>
        <mxCell id="N_KGEwdVsxF9C0kxCByH-8" value="user_id" style="text;strokeColor=none;fillColor=none;spacingLeft=4;spacingRight=4;overflow=hidden;rotatable=0;points=[[0,0.5],[1,0.5]];portConstraint=eastwest;fontSize=12;" vertex="1" parent="N_KGEwdVsxF9C0kxCByH-6">
          <mxGeometry y="56" width="50" height="30" as="geometry" />
        </mxCell>
        <mxCell id="N_KGEwdVsxF9C0kxCByH-11" value="" style="edgeStyle=entityRelationEdgeStyle;fontSize=12;html=1;endArrow=ERmandOne;startArrow=ERmandOne;entryX=-0.013;entryY=0.381;entryDx=0;entryDy=0;entryPerimeter=0;exitX=1;exitY=0.5;exitDx=0;exitDy=0;" edge="1" parent="1" source="N_KGEwdVsxF9C0kxCByH-3" target="N_KGEwdVsxF9C0kxCByH-7">
          <mxGeometry width="100" height="100" relative="1" as="geometry">
            <mxPoint x="101" y="80" as="sourcePoint" />
            <mxPoint x="210" y="120" as="targetPoint" />
          </mxGeometry>
        </mxCell>
        <mxCell id="N_KGEwdVsxF9C0kxCByH-12" value="device" style="swimlane;fontStyle=0;childLayout=stackLayout;horizontal=1;startSize=26;horizontalStack=0;resizeParent=1;resizeParentMax=0;resizeLast=0;collapsible=1;marginBottom=0;align=center;fontSize=14;" vertex="1" parent="1">
          <mxGeometry x="450" y="40" width="55" height="236" as="geometry" />
        </mxCell>
        <mxCell id="N_KGEwdVsxF9C0kxCByH-13" value="id" style="text;strokeColor=none;fillColor=none;spacingLeft=4;spacingRight=4;overflow=hidden;rotatable=0;points=[[0,0.5],[1,0.5]];portConstraint=eastwest;fontSize=12;" vertex="1" parent="N_KGEwdVsxF9C0kxCByH-12">
          <mxGeometry y="26" width="55" height="30" as="geometry" />
        </mxCell>
        <mxCell id="N_KGEwdVsxF9C0kxCByH-14" value="name" style="text;strokeColor=none;fillColor=none;spacingLeft=4;spacingRight=4;overflow=hidden;rotatable=0;points=[[0,0.5],[1,0.5]];portConstraint=eastwest;fontSize=12;" vertex="1" parent="N_KGEwdVsxF9C0kxCByH-12">
          <mxGeometry y="56" width="55" height="30" as="geometry" />
        </mxCell>
        <mxCell id="N_KGEwdVsxF9C0kxCByH-15" value="price" style="text;strokeColor=none;fillColor=none;spacingLeft=4;spacingRight=4;overflow=hidden;rotatable=0;points=[[0,0.5],[1,0.5]];portConstraint=eastwest;fontSize=12;" vertex="1" parent="N_KGEwdVsxF9C0kxCByH-12">
          <mxGeometry y="86" width="55" height="30" as="geometry" />
        </mxCell>
        <mxCell id="N_KGEwdVsxF9C0kxCByH-16" value="rating" style="text;strokeColor=none;fillColor=none;spacingLeft=4;spacingRight=4;overflow=hidden;rotatable=0;points=[[0,0.5],[1,0.5]];portConstraint=eastwest;fontSize=12;" vertex="1" parent="N_KGEwdVsxF9C0kxCByH-12">
          <mxGeometry y="116" width="55" height="30" as="geometry" />
        </mxCell>
        <mxCell id="N_KGEwdVsxF9C0kxCByH-17" value="img" style="text;strokeColor=none;fillColor=none;spacingLeft=4;spacingRight=4;overflow=hidden;rotatable=0;points=[[0,0.5],[1,0.5]];portConstraint=eastwest;fontSize=12;" vertex="1" parent="N_KGEwdVsxF9C0kxCByH-12">
          <mxGeometry y="146" width="55" height="30" as="geometry" />
        </mxCell>
        <mxCell id="N_KGEwdVsxF9C0kxCByH-18" value="typeId" style="text;strokeColor=none;fillColor=none;spacingLeft=4;spacingRight=4;overflow=hidden;rotatable=0;points=[[0,0.5],[1,0.5]];portConstraint=eastwest;fontSize=12;" vertex="1" parent="N_KGEwdVsxF9C0kxCByH-12">
          <mxGeometry y="176" width="55" height="30" as="geometry" />
        </mxCell>
        <mxCell id="N_KGEwdVsxF9C0kxCByH-32" value="brandId" style="text;strokeColor=none;fillColor=none;spacingLeft=4;spacingRight=4;overflow=hidden;rotatable=0;points=[[0,0.5],[1,0.5]];portConstraint=eastwest;fontSize=12;" vertex="1" parent="N_KGEwdVsxF9C0kxCByH-12">
          <mxGeometry y="206" width="55" height="30" as="geometry" />
        </mxCell>
        <mxCell id="N_KGEwdVsxF9C0kxCByH-20" value="type" style="swimlane;fontStyle=0;childLayout=stackLayout;horizontal=1;startSize=26;horizontalStack=0;resizeParent=1;resizeParentMax=0;resizeLast=0;collapsible=1;marginBottom=0;align=center;fontSize=14;" vertex="1" parent="1">
          <mxGeometry x="350" y="300" width="50" height="86" as="geometry" />
        </mxCell>
        <mxCell id="N_KGEwdVsxF9C0kxCByH-21" value="id" style="text;strokeColor=none;fillColor=none;spacingLeft=4;spacingRight=4;overflow=hidden;rotatable=0;points=[[0,0.5],[1,0.5]];portConstraint=eastwest;fontSize=12;" vertex="1" parent="N_KGEwdVsxF9C0kxCByH-20">
          <mxGeometry y="26" width="50" height="30" as="geometry" />
        </mxCell>
        <mxCell id="N_KGEwdVsxF9C0kxCByH-22" value="name" style="text;strokeColor=none;fillColor=none;spacingLeft=4;spacingRight=4;overflow=hidden;rotatable=0;points=[[0,0.5],[1,0.5]];portConstraint=eastwest;fontSize=12;" vertex="1" parent="N_KGEwdVsxF9C0kxCByH-20">
          <mxGeometry y="56" width="50" height="30" as="geometry" />
        </mxCell>
        <mxCell id="N_KGEwdVsxF9C0kxCByH-24" value="brand" style="swimlane;fontStyle=0;childLayout=stackLayout;horizontal=1;startSize=26;horizontalStack=0;resizeParent=1;resizeParentMax=0;resizeLast=0;collapsible=1;marginBottom=0;align=center;fontSize=14;" vertex="1" parent="1">
          <mxGeometry x="480" y="320" width="47.5" height="86" as="geometry" />
        </mxCell>
        <mxCell id="N_KGEwdVsxF9C0kxCByH-25" value="id" style="text;strokeColor=none;fillColor=none;spacingLeft=4;spacingRight=4;overflow=hidden;rotatable=0;points=[[0,0.5],[1,0.5]];portConstraint=eastwest;fontSize=12;" vertex="1" parent="N_KGEwdVsxF9C0kxCByH-24">
          <mxGeometry y="26" width="47.5" height="30" as="geometry" />
        </mxCell>
        <mxCell id="N_KGEwdVsxF9C0kxCByH-26" value="name" style="text;strokeColor=none;fillColor=none;spacingLeft=4;spacingRight=4;overflow=hidden;rotatable=0;points=[[0,0.5],[1,0.5]];portConstraint=eastwest;fontSize=12;" vertex="1" parent="N_KGEwdVsxF9C0kxCByH-24">
          <mxGeometry y="56" width="47.5" height="30" as="geometry" />
        </mxCell>
        <mxCell id="N_KGEwdVsxF9C0kxCByH-28" value="" style="edgeStyle=entityRelationEdgeStyle;fontSize=12;html=1;endArrow=ERoneToMany;exitX=0.5;exitY=0;exitDx=0;exitDy=0;entryX=0;entryY=0.5;entryDx=0;entryDy=0;" edge="1" parent="1" source="N_KGEwdVsxF9C0kxCByH-20" target="N_KGEwdVsxF9C0kxCByH-17">
          <mxGeometry width="100" height="100" relative="1" as="geometry">
            <mxPoint x="180" y="310" as="sourcePoint" />
            <mxPoint x="280" y="210" as="targetPoint" />
          </mxGeometry>
        </mxCell>
        <mxCell id="N_KGEwdVsxF9C0kxCByH-31" value="" style="edgeStyle=entityRelationEdgeStyle;fontSize=12;html=1;endArrow=ERoneToMany;exitX=0.5;exitY=0;exitDx=0;exitDy=0;" edge="1" parent="1" source="N_KGEwdVsxF9C0kxCByH-24" target="N_KGEwdVsxF9C0kxCByH-32">
          <mxGeometry width="100" height="100" relative="1" as="geometry">
            <mxPoint x="300" y="310" as="sourcePoint" />
            <mxPoint x="298" y="260" as="targetPoint" />
          </mxGeometry>
        </mxCell>
        <mxCell id="N_KGEwdVsxF9C0kxCByH-33" value="" style="edgeStyle=entityRelationEdgeStyle;fontSize=12;html=1;endArrow=ERmany;startArrow=ERmany;exitX=1;exitY=0.5;exitDx=0;exitDy=0;entryX=0;entryY=0.5;entryDx=0;entryDy=0;" edge="1" parent="1" source="N_KGEwdVsxF9C0kxCByH-21" target="N_KGEwdVsxF9C0kxCByH-25">
          <mxGeometry width="100" height="100" relative="1" as="geometry">
            <mxPoint x="210" y="520" as="sourcePoint" />
            <mxPoint x="310" y="420" as="targetPoint" />
          </mxGeometry>
        </mxCell>
        <mxCell id="N_KGEwdVsxF9C0kxCByH-34" value="device_info" style="swimlane;fontStyle=0;childLayout=stackLayout;horizontal=1;startSize=26;horizontalStack=0;resizeParent=1;resizeParentMax=0;resizeLast=0;collapsible=1;marginBottom=0;align=center;fontSize=14;" vertex="1" parent="1">
          <mxGeometry x="550" y="40" width="90" height="146" as="geometry" />
        </mxCell>
        <mxCell id="N_KGEwdVsxF9C0kxCByH-35" value="id" style="text;strokeColor=none;fillColor=none;spacingLeft=4;spacingRight=4;overflow=hidden;rotatable=0;points=[[0,0.5],[1,0.5]];portConstraint=eastwest;fontSize=12;" vertex="1" parent="N_KGEwdVsxF9C0kxCByH-34">
          <mxGeometry y="26" width="90" height="30" as="geometry" />
        </mxCell>
        <mxCell id="N_KGEwdVsxF9C0kxCByH-36" value="device_id" style="text;strokeColor=none;fillColor=none;spacingLeft=4;spacingRight=4;overflow=hidden;rotatable=0;points=[[0,0.5],[1,0.5]];portConstraint=eastwest;fontSize=12;" vertex="1" parent="N_KGEwdVsxF9C0kxCByH-34">
          <mxGeometry y="56" width="90" height="30" as="geometry" />
        </mxCell>
        <mxCell id="N_KGEwdVsxF9C0kxCByH-37" value="title" style="text;strokeColor=none;fillColor=none;spacingLeft=4;spacingRight=4;overflow=hidden;rotatable=0;points=[[0,0.5],[1,0.5]];portConstraint=eastwest;fontSize=12;" vertex="1" parent="N_KGEwdVsxF9C0kxCByH-34">
          <mxGeometry y="86" width="90" height="30" as="geometry" />
        </mxCell>
        <mxCell id="N_KGEwdVsxF9C0kxCByH-39" value="description" style="text;strokeColor=none;fillColor=none;spacingLeft=4;spacingRight=4;overflow=hidden;rotatable=0;points=[[0,0.5],[1,0.5]];portConstraint=eastwest;fontSize=12;" vertex="1" parent="N_KGEwdVsxF9C0kxCByH-34">
          <mxGeometry y="116" width="90" height="30" as="geometry" />
        </mxCell>
        <mxCell id="N_KGEwdVsxF9C0kxCByH-38" value="" style="edgeStyle=entityRelationEdgeStyle;fontSize=12;html=1;endArrow=ERoneToMany;exitX=1;exitY=0.5;exitDx=0;exitDy=0;entryX=-0.004;entryY=0.344;entryDx=0;entryDy=0;entryPerimeter=0;" edge="1" parent="1" source="N_KGEwdVsxF9C0kxCByH-14" target="N_KGEwdVsxF9C0kxCByH-36">
          <mxGeometry width="100" height="100" relative="1" as="geometry">
            <mxPoint x="380" y="220" as="sourcePoint" />
            <mxPoint x="480" y="120" as="targetPoint" />
          </mxGeometry>
        </mxCell>
        <mxCell id="N_KGEwdVsxF9C0kxCByH-40" value="basker_device" style="swimlane;fontStyle=0;childLayout=stackLayout;horizontal=1;startSize=26;horizontalStack=0;resizeParent=1;resizeParentMax=0;resizeLast=0;collapsible=1;marginBottom=0;align=center;fontSize=14;" vertex="1" parent="1">
          <mxGeometry x="250" y="35" width="110" height="116" as="geometry" />
        </mxCell>
        <mxCell id="N_KGEwdVsxF9C0kxCByH-41" value="id" style="text;strokeColor=none;fillColor=none;spacingLeft=4;spacingRight=4;overflow=hidden;rotatable=0;points=[[0,0.5],[1,0.5]];portConstraint=eastwest;fontSize=12;" vertex="1" parent="N_KGEwdVsxF9C0kxCByH-40">
          <mxGeometry y="26" width="110" height="30" as="geometry" />
        </mxCell>
        <mxCell id="N_KGEwdVsxF9C0kxCByH-42" value="device_id" style="text;strokeColor=none;fillColor=none;spacingLeft=4;spacingRight=4;overflow=hidden;rotatable=0;points=[[0,0.5],[1,0.5]];portConstraint=eastwest;fontSize=12;" vertex="1" parent="N_KGEwdVsxF9C0kxCByH-40">
          <mxGeometry y="56" width="110" height="30" as="geometry" />
        </mxCell>
        <mxCell id="N_KGEwdVsxF9C0kxCByH-43" value="basket_id" style="text;strokeColor=none;fillColor=none;spacingLeft=4;spacingRight=4;overflow=hidden;rotatable=0;points=[[0,0.5],[1,0.5]];portConstraint=eastwest;fontSize=12;" vertex="1" parent="N_KGEwdVsxF9C0kxCByH-40">
          <mxGeometry y="86" width="110" height="30" as="geometry" />
        </mxCell>
        <mxCell id="N_KGEwdVsxF9C0kxCByH-44" value="" style="edgeStyle=entityRelationEdgeStyle;fontSize=12;html=1;endArrow=ERoneToMany;exitX=1.02;exitY=0.344;exitDx=0;exitDy=0;exitPerimeter=0;" edge="1" parent="1" source="N_KGEwdVsxF9C0kxCByH-7" target="N_KGEwdVsxF9C0kxCByH-41">
          <mxGeometry width="100" height="100" relative="1" as="geometry">
            <mxPoint x="150" y="180" as="sourcePoint" />
            <mxPoint x="250" y="80" as="targetPoint" />
          </mxGeometry>
        </mxCell>
        <mxCell id="N_KGEwdVsxF9C0kxCByH-46" value="" style="edgeStyle=entityRelationEdgeStyle;fontSize=12;html=1;endArrow=ERmandOne;startArrow=ERmandOne;exitX=1;exitY=0.5;exitDx=0;exitDy=0;entryX=0;entryY=0.5;entryDx=0;entryDy=0;" edge="1" parent="1" source="N_KGEwdVsxF9C0kxCByH-42" target="N_KGEwdVsxF9C0kxCByH-14">
          <mxGeometry width="100" height="100" relative="1" as="geometry">
            <mxPoint x="320" y="300" as="sourcePoint" />
            <mxPoint x="420" y="200" as="targetPoint" />
          </mxGeometry>
        </mxCell>
        <mxCell id="N_KGEwdVsxF9C0kxCByH-47" value="rating" style="swimlane;fontStyle=0;childLayout=stackLayout;horizontal=1;startSize=26;horizontalStack=0;resizeParent=1;resizeParentMax=0;resizeLast=0;collapsible=1;marginBottom=0;align=center;fontSize=14;" vertex="1" parent="1">
          <mxGeometry x="80" y="276" width="160" height="146" as="geometry" />
        </mxCell>
        <mxCell id="N_KGEwdVsxF9C0kxCByH-48" value="id" style="text;strokeColor=none;fillColor=none;spacingLeft=4;spacingRight=4;overflow=hidden;rotatable=0;points=[[0,0.5],[1,0.5]];portConstraint=eastwest;fontSize=12;" vertex="1" parent="N_KGEwdVsxF9C0kxCByH-47">
          <mxGeometry y="26" width="160" height="30" as="geometry" />
        </mxCell>
        <mxCell id="N_KGEwdVsxF9C0kxCByH-49" value="user_id" style="text;strokeColor=none;fillColor=none;spacingLeft=4;spacingRight=4;overflow=hidden;rotatable=0;points=[[0,0.5],[1,0.5]];portConstraint=eastwest;fontSize=12;" vertex="1" parent="N_KGEwdVsxF9C0kxCByH-47">
          <mxGeometry y="56" width="160" height="30" as="geometry" />
        </mxCell>
        <mxCell id="N_KGEwdVsxF9C0kxCByH-50" value="device_id" style="text;strokeColor=none;fillColor=none;spacingLeft=4;spacingRight=4;overflow=hidden;rotatable=0;points=[[0,0.5],[1,0.5]];portConstraint=eastwest;fontSize=12;" vertex="1" parent="N_KGEwdVsxF9C0kxCByH-47">
          <mxGeometry y="86" width="160" height="30" as="geometry" />
        </mxCell>
        <mxCell id="N_KGEwdVsxF9C0kxCByH-51" value="rate" style="text;strokeColor=none;fillColor=none;spacingLeft=4;spacingRight=4;overflow=hidden;rotatable=0;points=[[0,0.5],[1,0.5]];portConstraint=eastwest;fontSize=12;" vertex="1" parent="N_KGEwdVsxF9C0kxCByH-47">
          <mxGeometry y="116" width="160" height="30" as="geometry" />
        </mxCell>
        <mxCell id="N_KGEwdVsxF9C0kxCByH-52" value="" style="edgeStyle=entityRelationEdgeStyle;fontSize=12;html=1;endArrow=ERoneToMany;exitX=0.497;exitY=1.017;exitDx=0;exitDy=0;exitPerimeter=0;" edge="1" parent="1" source="N_KGEwdVsxF9C0kxCByH-5" target="N_KGEwdVsxF9C0kxCByH-48">
          <mxGeometry width="100" height="100" relative="1" as="geometry">
            <mxPoint x="30" y="290" as="sourcePoint" />
            <mxPoint x="130" y="190" as="targetPoint" />
          </mxGeometry>
        </mxCell>
        <mxCell id="N_KGEwdVsxF9C0kxCByH-53" value="" style="edgeStyle=entityRelationEdgeStyle;fontSize=12;html=1;endArrow=ERoneToMany;exitX=1;exitY=0.5;exitDx=0;exitDy=0;entryX=0;entryY=0.5;entryDx=0;entryDy=0;" edge="1" parent="1" source="N_KGEwdVsxF9C0kxCByH-48" target="N_KGEwdVsxF9C0kxCByH-16">
          <mxGeometry width="100" height="100" relative="1" as="geometry">
            <mxPoint x="260" y="286" as="sourcePoint" />
            <mxPoint x="360" y="186" as="targetPoint" />
          </mxGeometry>
        </mxCell>
      </root>
    </mxGraphModel>
  </diagram>
</mxfile>
